<?xml version="1.0" standalone="no"?>
<!DOCTYPE svg PUBLIC "-//W3C//DTD SVG 20010904//EN"
 "http://www.w3.org/TR/2001/REC-SVG-20010904/DTD/svg10.dtd">
<svg version="1.0" xmlns="http://www.w3.org/2000/svg"
 width="1280.000000pt" height="639.000000pt" viewBox="0 0 1280.000000 639.000000"
 preserveAspectRatio="xMidYMid meet">
<metadata>
Created by potrace 1.15, written by Peter Selinger 2001-2017
</metadata>
<g transform="translate(0.000000,639.000000) scale(0.100000,-0.100000)"
fill="#000000" stroke="none">
<path d="M1940 5073 c0 -17 87 -160 142 -234 79 -104 257 -298 361 -393 48
-43 86 -81 84 -83 -2 -2 -62 24 -132 57 -70 33 -130 58 -133 56 -2 -3 20 -40
49 -82 63 -91 241 -275 382 -394 54 -45 97 -84 95 -85 -9 -9 -652 17 -753 30
-286 37 -625 106 -911 184 -98 27 -180 48 -181 47 -1 -1 24 -37 57 -81 33 -44
58 -81 56 -82 -10 -11 -598 128 -884 208 -79 22 -146 38 -150 35 -9 -9 175
-186 264 -254 154 -116 432 -288 632 -392 35 -18 62 -34 60 -35 -2 -2 -86 12
-188 30 -101 19 -186 33 -187 31 -6 -6 97 -95 176 -154 152 -113 408 -252 696
-377 72 -31 132 -59 134 -61 5 -4 -220 4 -286 11 -24 3 -43 1 -43 -3 0 -17
200 -132 305 -176 51 -21 144 -85 145 -98 0 -10 -558 -9 -750 1 -80 4 -147 6
-148 5 -2 -1 18 -19 45 -38 65 -49 263 -146 398 -195 112 -42 398 -130 425
-132 8 -1 4 -5 -10 -9 -14 -4 -72 -9 -130 -10 -162 -2 -165 -8 -30 -73 174
-84 414 -155 685 -203 55 -9 104 -20 108 -24 4 -4 -41 -15 -100 -25 -151 -26
-157 -28 -108 -50 128 -54 346 -90 665 -107 l225 -12 -110 -21 c-108 -21 -109
-22 -85 -38 14 -9 43 -24 65 -33 l40 -17 -60 -18 c-81 -25 -442 -106 -537
-121 -43 -6 -78 -15 -78 -19 0 -10 153 -57 241 -74 70 -13 179 -25 374 -41
l80 -7 -92 -26 c-50 -14 -94 -29 -98 -32 -8 -9 104 -36 205 -49 48 -6 178 -10
297 -8 116 2 209 0 207 -3 -2 -4 -39 -21 -83 -39 -44 -18 -78 -36 -76 -40 9
-14 157 -19 262 -10 196 18 409 62 598 124 11 3 -27 -17 -85 -46 l-105 -52 45
-8 c121 -24 453 17 625 78 55 20 142 42 193 50 191 28 456 139 613 257 53 40
136 120 215 206 101 111 160 165 271 249 157 119 360 236 390 226 10 -4 -1 13
-26 39 -24 25 -41 51 -39 58 3 8 -1 20 -9 27 -7 7 -13 19 -13 25 0 6 13 -4 29
-23 l29 -35 -19 110 c-55 309 -108 417 -310 630 -41 44 -91 103 -111 130 -20
28 -66 78 -102 113 -36 34 -87 93 -112 132 -26 38 -51 70 -57 70 -5 0 -7 -16
-5 -35 2 -19 1 -35 -4 -35 -16 0 -149 122 -213 197 -38 43 -72 79 -76 81 -4 2
-9 -18 -11 -43 l-3 -47 -65 50 c-68 51 -310 296 -310 312 0 6 -5 10 -11 10
-14 0 -5 -114 15 -190 7 -28 11 -50 9 -50 -2 0 -49 15 -106 34 -56 19 -155 51
-220 71 -138 42 -340 133 -517 233 -69 38 -126 69 -128 68 -1 -2 5 -20 14 -41
15 -36 14 -37 -3 -31 -10 4 -79 25 -153 47 -222 66 -349 110 -465 159 -149 64
-404 192 -564 284 -72 42 -133 76 -136 76 -6 0 20 -71 39 -109 9 -17 13 -31
10 -31 -22 0 -603 317 -711 388 -13 8 -23 10 -23 5z"/>
<path d="M10710 4993 c-158 -94 -572 -314 -578 -309 -2 2 8 32 22 67 14 34 24
64 23 66 -2 2 -71 -35 -153 -82 -160 -92 -384 -205 -557 -279 -109 -48 -213
-83 -457 -155 -74 -22 -143 -43 -152 -46 -17 -7 -17 -5 -2 30 8 20 14 38 12
40 -2 1 -46 -22 -98 -52 -116 -67 -350 -181 -445 -216 -38 -14 -131 -44 -206
-66 -75 -22 -158 -50 -184 -61 -43 -19 -47 -19 -40 -3 11 27 34 163 35 201 0
17 -4 32 -10 32 -5 0 -10 -4 -10 -10 0 -16 -242 -261 -310 -312 l-65 -50 -3
47 c-2 25 -7 45 -11 43 -4 -2 -38 -38 -76 -81 -64 -75 -197 -197 -213 -197 -5
0 -6 16 -4 35 2 19 0 35 -5 35 -6 0 -31 -32 -57 -70 -25 -39 -74 -97 -109
-129 -34 -33 -75 -78 -92 -102 -16 -23 -68 -83 -115 -133 -214 -229 -263 -329
-319 -641 l-19 -110 29 35 c16 19 29 29 29 23 0 -6 -6 -18 -14 -26 -9 -9 -11
-18 -5 -24 5 -5 -6 -24 -31 -48 -37 -36 -54 -65 -30 -50 19 12 242 -121 385
-228 113 -85 170 -137 269 -247 77 -84 160 -164 213 -205 158 -119 423 -231
614 -259 52 -8 134 -29 184 -46 174 -63 515 -107 635 -82 l45 9 -103 48 c-56
26 -101 49 -99 51 2 2 50 -12 107 -30 122 -40 347 -82 506 -95 110 -10 250 -5
259 9 2 4 -31 22 -73 40 -42 18 -80 36 -84 39 -4 3 84 5 195 3 111 -2 244 2
296 8 105 12 225 39 216 49 -4 3 -48 18 -98 32 l-92 26 80 7 c195 16 304 28
374 41 88 17 241 64 241 74 0 4 -35 13 -77 19 -95 15 -455 95 -538 120 l-60
18 63 29 c34 15 62 31 62 34 0 3 -48 15 -107 27 l-108 20 165 8 c329 15 553
48 703 103 37 14 66 27 65 29 -2 1 -61 13 -131 25 -70 13 -124 26 -120 29 5 4
55 15 113 25 126 21 374 82 485 120 44 14 132 52 195 82 134 65 132 71 -30 73
-58 1 -116 6 -130 10 -14 4 -18 8 -10 9 27 2 313 90 425 132 135 49 333 146
398 195 27 19 47 37 45 38 -1 1 -68 -1 -148 -5 -192 -10 -750 -11 -750 -1 1
16 92 72 203 125 103 49 264 145 255 152 -2 1 -77 -1 -168 -6 -90 -4 -165 -7
-167 -5 -2 1 43 22 100 46 368 155 680 334 841 482 37 33 65 62 63 64 -1 2
-86 -12 -187 -31 -102 -18 -187 -32 -189 -30 -1 2 26 18 60 36 183 91 477 273
633 391 89 68 273 245 264 254 -4 3 -71 -13 -150 -35 -250 -70 -840 -211 -883
-211 -3 0 22 37 55 81 34 45 59 83 58 85 -2 1 -64 -15 -138 -36 -281 -79 -658
-157 -948 -195 -62 -8 -202 -17 -310 -20 -108 -3 -252 -8 -319 -10 -101 -4
-122 -3 -117 8 3 8 55 56 116 108 61 52 153 138 204 193 88 93 201 242 192
252 -3 2 -63 -23 -133 -56 -70 -33 -130 -59 -131 -57 -2 2 41 45 96 96 115
106 276 284 360 396 55 75 136 213 129 220 -2 1 -69 -36 -149 -82z"/>
</g>
</svg>
